<svg width="24" height="24" viewBox="0 0 24 24" fill="none" xmlns="http://www.w3.org/2000/svg">
<g clip-path="url(#clip0_24_67)">
<path d="M10.75 11.5L17.825 4.425C18.025 4.225 18.2583 4.125 18.525 4.125C18.7917 4.125 19.025 4.225 19.225 4.425C19.425 4.625 19.525 4.85833 19.525 5.125C19.525 5.39166 19.425 5.625 19.225 5.825L12.175 12.9L10.75 11.5ZM13.225 13.975L19.575 7.6C19.775 7.4 20.0125 7.3 20.2875 7.3C20.5625 7.3 20.8 7.4 21 7.6C21.2 7.8 21.3 8.0375 21.3 8.3125C21.3 8.5875 21.2 8.825 21 9.025L14.65 15.375L13.225 13.975ZM5.27501 18.725C3.75834 17.2083 3.00001 15.3833 3.00001 13.25C3.00001 11.1167 3.75834 9.29167 5.27501 7.775L8.27501 4.775L9.75001 6.25C9.86667 6.36667 9.96667 6.4875 10.05 6.6125C10.1333 6.7375 10.2167 6.86667 10.3 7L14 3.275C14.2 3.075 14.4375 2.975 14.7125 2.975C14.9875 2.975 15.225 3.075 15.425 3.275C15.625 3.475 15.725 3.7125 15.725 3.9875C15.725 4.2625 15.625 4.5 15.425 4.7L11.1 9.025L8.97501 11.125L9.45001 11.6C10.2167 12.3667 10.5833 13.2833 10.55 14.35C10.5167 15.4167 10.1083 16.3417 9.32501 17.125L7.90001 15.725C8.28334 15.3417 8.49584 14.8875 8.53751 14.3625C8.57917 13.8375 8.40834 13.3833 8.02501 13L6.85001 11.85C6.65001 11.65 6.55001 11.4125 6.55001 11.1375C6.55001 10.8625 6.65001 10.625 6.85001 10.425L8.27501 9.025C8.47501 8.825 8.57501 8.5875 8.57501 8.3125C8.57501 8.0375 8.47501 7.8 8.27501 7.6L6.67501 9.2C5.54167 10.3333 4.97501 11.6875 4.97501 13.2625C4.97501 14.8375 5.54167 16.1917 6.67501 17.325C7.80834 18.4583 9.16667 19.025 10.75 19.025C12.3333 19.025 13.6917 18.4583 14.825 17.325L20.8 11.325C21 11.125 21.2375 11.025 21.5125 11.025C21.7875 11.025 22.025 11.125 22.225 11.325C22.425 11.525 22.525 11.7625 22.525 12.0375C22.525 12.3125 22.425 12.55 22.225 12.75L16.225 18.725C14.7083 20.2417 12.8833 21 10.75 21C8.61667 21 6.79167 20.2417 5.27501 18.725ZM17 23.025V21C18.1 21 19.0417 20.6083 19.825 19.825C20.6083 19.0417 21 18.1 21 17H23.025C23.025 18.6667 22.4375 20.0875 21.2625 21.2625C20.0875 22.4375 18.6667 23.025 17 23.025ZM0.975006 7C0.975006 5.33333 1.56251 3.9125 2.73751 2.7375C3.91251 1.5625 5.33334 0.974998 7.00001 0.974998V3C5.90001 3 4.95834 3.39167 4.17501 4.175C3.39167 4.95833 3.00001 5.9 3.00001 7H0.975006Z" fill="black"/>
</g>
<defs>
<clipPath id="clip0_24_67">
<rect width="24" height="24" fill="white"/>
</clipPath>
</defs>
</svg>
